# xmcd CD database file
#
# Track frame offsets:
#	150
#	20682
#	39937
#	60297
#	82627
#	103932
#	120712
#	141970
#	167715
#	193890
#	212465
#	229770
#	243212
#	272310
#
# Disc length: 3864 seconds
#
# Revision: 4
# Processed by: cddbd v1.5PL3 Copyright (c) Steve Scherf et al.
# Submitted via: CDex 1.50beta8
#
DISCID=b00f160e
DTITLE=忌野清志郎 and 2・3's - GO GO 2・3's
DYEAR=1992
DGENRE=Rock
TTITLE0=Let's Go(IKOHZE)
TTITLE1=あの娘の神様
TTITLE2=いくじなし(Bye-Bye)
TTITLE3=お兄さんの歌
TTITLE4=インディアン・サマー
TTITLE5=75日(75days)
TTITLE6=いつか観た映画みたいに
TTITLE7=芸術家
TTITLE8=あの娘が結婚してしまう パート2
TTITLE9=現場処理の男
TTITLE10=素敵なエンドーさん
TTITLE11=ハッピーバースデー
TTITLE12=Newsを知りたい
TTITLE13=ぶっちゃけた恋
EXTD=YEAR: 1992
EXTT0=
EXTT1=
EXTT2=
EXTT3=
EXTT4=
EXTT5=
EXTT6=
EXTT7=
EXTT8=
EXTT9=
EXTT10=
EXTT11=
EXTT12=
EXTT13=
PLAYORDER=
